<?xml version="1.0" encoding="UTF-8"?>
<svg width="5.1594mm" height="5.1594mm" version="1.1" viewBox="0 0 5.1593747 5.1593747" xmlns="http://www.w3.org/2000/svg">
<g transform="translate(-98.636 -223.49)">
<g transform="matrix(.15445 0 0 .14202 99.322 224.32)">
<path d="m0 0h24v24h-24z" fill="none"/>
<path d="m13.06 8.11 1.415 1.415a7 7 0 0 1 0 9.9l-0.354 0.353a7.0004 7.0004 0 0 1 -9.9 -9.9l1.415 1.415a5 5 0 1 0 7.071 7.071l0.354-0.354a5 5 0 0 0 0 -7.07l-1.415-1.415 1.415-1.414zm6.718 6.011-1.414-1.414a5 5 0 1 0 -7.071 -7.071l-0.354 0.354a5 5 0 0 0 0 7.07l1.415 1.415-1.415 1.414-1.414-1.414a7 7 0 0 1 0 -9.9l0.354-0.353a7.0004 7.0004 0 0 1 9.9 9.9z"/>
</g>
<g transform="matrix(.26458 0 0 .26458 98.041 222.89)" fill="none" stroke-width="1.5">
<path d="m21 3.6v16.8c0 0.3314-0.2686 0.6-0.6 0.6h-16.8c-0.33137 0-0.6-0.2686-0.6-0.6v-16.8c0-0.33137 0.26863-0.6 0.6-0.6h16.8c0.3314 0 0.6 0.26863 0.6 0.6z" stroke="currentColor" stroke-linecap="round" stroke-linejoin="round"/>
</g>
</g>
</svg>
